<svg version="1.1" id="Layer_1" xmlns="http://www.w3.org/2000/svg" xmlns:xlink="http://www.w3.org/1999/xlink" x="0px" y="0px"
	 width="100%" viewBox="0 0 960 960" enable-background="new 0 0 960 960" xml:space="preserve">
<path fill="#000000" opacity="1.000000" stroke="none" 
	d="
M961.000000,2.500000 
	C644.248047,3.013744 327.496094,3.029778 10.744124,3.006656 
	C7.766507,3.006438 4.788927,2.484457 1.405665,2.103034 
	C1.217985,1.692326 0.494306,0.957172 1.500338,0.989468 
	C2.832299,1.032227 4.166667,1.000000 5.500000,1.000000 
	C322.500000,1.000000 639.500000,0.997985 956.500000,1.061680 
	C957.963318,1.061974 959.890686,-0.091487 961.000000,2.500000 
z"/>
<path fill="#000000" opacity="1.000000" stroke="none" 
	d="
M510.000000,735.149170 
	C383.170502,735.139832 256.840973,735.130066 130.511475,735.120972 
	C122.776672,735.120422 122.756256,735.122986 122.755676,727.384827 
	C122.743187,560.389832 122.734917,393.394836 122.729195,226.399826 
	C122.728943,219.088226 122.906487,218.900558 130.359573,218.900116 
	C302.021088,218.890045 473.682587,218.885406 645.344116,218.885941 
	C651.400940,218.885956 651.910400,219.339844 651.929138,225.433640 
	C651.972656,239.599670 651.930054,253.765976 651.920593,267.932159 
	C651.920288,268.432007 651.914795,268.932617 651.888306,269.431610 
	C651.743408,272.158020 651.768494,274.963776 647.849854,275.020508 
	C643.845764,275.078491 643.870972,272.273499 643.862915,269.525116 
	C643.828613,257.858887 643.827209,246.192581 643.815002,234.526291 
	C643.814331,233.859680 643.760376,233.185318 643.839844,232.527695 
	C644.340942,228.383728 642.522522,227.071686 638.409119,227.096954 
	C614.910950,227.241257 591.411377,227.148560 567.912292,227.148544 
	C425.751221,227.148438 283.590118,227.140289 141.429047,227.173172 
	C128.757721,227.176102 130.255142,225.904907 130.252319,238.452026 
	C130.216385,398.113922 130.224716,557.775818 130.223495,717.437744 
	C130.223434,727.151978 130.230194,727.108643 139.684662,727.107605 
	C210.182510,727.099487 280.680359,727.114990 351.178223,727.113220 
	C444.175385,727.110840 537.172546,727.097290 630.169739,727.101685 
	C633.166870,727.101868 636.195312,727.004944 639.153198,727.386658 
	C642.790039,727.855957 643.886353,726.376160 643.862671,722.952881 
	C643.771545,709.787415 643.830750,696.620728 643.849243,683.454529 
	C643.853271,680.591736 643.520203,677.544434 647.888794,677.539490 
	C652.302368,677.534485 651.907410,680.676941 651.914124,683.485046 
	C651.950378,698.651062 651.803162,713.818970 652.007080,728.982422 
	C652.072693,733.858826 650.166931,735.219727 645.486084,735.206604 
	C600.491028,735.080627 555.495422,735.141479 510.000000,735.149170 
z"/>
<path fill="#000000" opacity="1.000000" stroke="none" 
	d="
M424.657654,468.673370 
	C430.839661,455.549591 440.832306,445.613464 449.467621,434.758606 
	C455.783783,426.819000 464.369232,425.036041 470.635498,428.707397 
	C476.733673,432.280273 478.775452,440.933807 475.838806,450.294922 
	C472.590637,460.649170 465.473755,467.968445 457.157715,474.363861 
	C455.045074,475.988556 452.882721,477.551910 450.697754,479.078400 
	C448.233124,480.800293 445.434998,482.129578 447.046417,486.138184 
	C448.702942,490.259064 451.336945,492.386169 455.857513,491.694244 
	C464.105225,490.431824 470.595490,485.849121 476.786407,480.647644 
	C490.051727,469.502228 500.269257,455.692047 510.507782,441.932404 
	C513.662598,437.692627 513.536926,432.155945 514.673035,427.159912 
	C515.817871,422.125977 516.748108,417.043335 518.701355,412.237946 
	C519.858582,409.390930 521.737305,407.297089 525.125000,407.847046 
	C528.685730,408.425018 530.734680,410.778290 531.034851,414.313110 
	C531.404419,418.664642 530.385010,422.926178 529.615295,427.177582 
	C527.629517,438.145691 525.547913,449.096436 523.554504,460.063232 
	C523.261963,461.672974 523.242432,463.332306 522.998291,466.071960 
	C525.145569,463.390350 525.489868,461.117218 526.175781,459.011536 
	C533.675110,435.988800 542.142212,413.407288 556.230103,393.406952 
	C560.463867,387.396332 564.918213,381.603363 571.482483,377.835724 
	C578.907166,373.574188 586.393738,376.694702 588.473938,385.098907 
	C590.247437,392.264191 588.286072,399.002594 585.566833,405.502441 
	C584.267456,408.608551 581.313232,409.663666 578.038452,409.107025 
	C574.815857,408.559235 573.338257,406.268250 572.792297,403.207336 
	C572.450562,401.291931 573.240601,399.259766 572.112427,397.102936 
	C569.670959,398.323944 568.520325,400.555328 567.167847,402.556091 
	C555.856567,419.288544 548.775146,437.949463 542.351196,456.919922 
	C538.719299,467.645233 534.944946,478.322418 531.209412,489.012390 
	C529.885437,492.801086 528.284851,496.498169 525.865723,499.706848 
	C521.031067,506.119446 514.182800,505.764069 510.009918,498.858704 
	C507.729584,495.085114 506.836121,490.834595 506.825470,486.421631 
	C506.814331,481.805145 506.822968,477.188629 506.822968,472.098541 
	C504.250580,473.008545 503.299835,474.793121 502.043762,476.234924 
	C492.903870,486.726288 482.817566,496.087799 470.471466,502.773926 
	C451.888519,512.837769 436.870789,504.945587 432.689392,488.929718 
	C432.531464,488.324829 432.128693,487.783875 431.838928,487.210938 
	C429.436249,487.581940 429.119446,489.672455 428.116791,491.073212 
	C418.728180,504.188904 410.514130,518.230652 398.095032,528.947144 
	C395.292633,531.365295 392.195068,533.282043 388.790070,534.716431 
	C379.967957,538.432739 372.190521,535.678528 367.710480,527.200378 
	C364.282562,520.713440 362.787903,513.733154 363.135620,506.456451 
	C364.090454,486.473907 366.935913,466.717987 370.402679,447.030670 
	C372.858551,433.083801 375.892242,419.272522 379.258942,405.525513 
	C379.730133,403.601532 380.186768,401.641144 379.435059,399.317566 
	C375.558990,398.941956 372.168884,400.865784 368.602570,401.910461 
	C365.407745,402.846313 362.242310,403.882690 359.045898,404.812805 
	C355.898438,405.728668 353.487549,404.554169 351.723022,401.947083 
	C349.960266,399.342743 350.727051,396.826355 352.304688,394.495056 
	C354.069336,391.887512 356.846924,390.574036 359.645813,389.519989 
	C366.500793,386.938446 373.343231,384.265076 380.355225,382.182770 
	C384.086182,381.074829 385.864197,378.857452 386.950653,375.486176 
	C388.992493,369.150269 391.164276,362.856079 393.185699,356.513885 
	C394.541473,352.260101 397.165741,349.914429 401.748688,350.871399 
	C406.561584,351.876404 406.590607,355.673859 406.322784,359.519836 
	C405.952484,364.837189 402.834747,369.596405 403.052887,375.567993 
	C408.690918,376.113464 413.905884,374.008057 419.274963,373.552979 
	C421.923370,373.328461 424.566132,372.974182 427.218689,372.877472 
	C431.287537,372.729248 433.965515,374.881989 434.897034,378.679413 
	C435.899963,382.767822 433.106323,384.809113 429.812988,386.141937 
	C424.038788,388.478882 417.791901,388.733887 411.782410,390.044159 
	C395.029846,393.696960 398.405487,390.716919 394.565765,405.991364 
	C387.501190,434.094666 381.956940,462.515259 378.595886,491.315918 
	C377.607269,499.787018 378.455688,508.281860 379.920593,516.678955 
	C380.722260,521.274109 382.374908,521.998230 386.310486,519.304138 
	C392.595154,515.002136 397.062103,508.887421 401.720062,503.042755 
	C410.250732,492.338745 417.469788,480.728394 424.657654,468.673370 
M459.061157,445.762695 
	C455.735962,450.094086 452.248260,454.339417 450.617798,461.117859 
	C457.148499,456.064270 460.767792,450.777130 462.551605,443.990295 
	C460.770508,443.712158 460.241089,444.701111 459.061157,445.762695 
z"/>
<path fill="#000000" opacity="1.000000" stroke="none" 
	d="
M696.293701,397.262299 
	C683.567627,414.395111 673.226868,432.363159 667.932434,452.862396 
	C665.849121,460.928680 664.137329,469.087677 666.297913,477.472565 
	C668.148438,484.653992 672.374573,487.113861 679.681396,485.769806 
	C693.024719,483.315430 702.677002,474.649384 712.220825,466.165466 
	C734.169739,446.654053 754.073303,425.129547 772.898743,402.603821 
	C773.768677,401.562866 774.624817,400.513611 774.726990,399.126770 
	C775.388672,390.140594 781.137939,383.518188 785.687866,376.496368 
	C791.729187,367.172821 802.976074,367.328613 809.362854,376.385590 
	C813.976868,382.928650 815.575378,390.259674 814.533997,398.208923 
	C814.307739,399.936035 813.447205,402.073792 815.313354,403.297180 
	C817.105713,404.472198 818.829529,403.083130 820.413696,402.246307 
	C825.894531,399.351135 830.969238,395.895782 835.232117,391.329865 
	C837.395386,389.012817 839.691589,386.836060 842.420105,385.163879 
	C845.190186,383.466278 848.003296,382.614960 850.588501,385.322906 
	C853.039001,387.889801 852.685791,390.876526 851.007996,393.628632 
	C848.749817,397.332825 846.117126,400.824371 842.770508,403.614868 
	C833.650024,411.219757 824.279541,418.428192 812.171021,420.720978 
	C809.891785,421.152557 808.458313,422.584106 807.276855,424.588501 
	C805.250793,428.025696 803.134155,431.445099 800.701233,434.598602 
	C797.014648,439.377167 792.122070,442.134155 785.919128,441.057465 
	C779.942383,440.020050 777.077454,435.629333 775.438049,430.193359 
	C775.016846,428.796814 774.375916,427.466583 773.634583,425.598755 
	C767.450684,430.636658 763.185852,436.827026 758.066162,442.183807 
	C739.294983,461.824280 720.648315,481.597595 696.796814,495.384827 
	C691.677368,498.344116 686.124512,500.205139 680.331787,500.981262 
	C663.981384,503.172028 651.288513,491.232269 650.819031,473.454926 
	C650.414917,458.155304 654.251648,443.798309 660.374695,429.910156 
	C666.381165,416.286316 673.893250,403.552887 682.493958,391.428558 
	C683.616638,389.845856 685.107971,388.396698 685.234436,385.851440 
	C682.195557,386.349243 679.322021,386.932098 676.420044,387.276031 
	C663.432678,388.815369 654.959473,379.744293 657.209290,366.793549 
	C658.097961,361.678314 659.472961,356.718262 661.823181,352.066711 
	C672.926453,330.091339 688.618774,312.036346 708.479309,297.560669 
	C713.557922,293.859070 719.359131,291.840851 725.462158,290.625946 
	C732.849792,289.155334 742.950867,297.228119 743.123962,304.715454 
	C743.184814,307.346680 741.865234,309.163391 739.571289,310.249847 
	C736.634705,311.640747 733.850830,311.582794 731.182495,309.392914 
	C725.098083,304.399506 723.082764,304.123535 716.981873,308.910553 
	C699.357483,322.739258 684.729187,339.179565 674.348572,359.183441 
	C673.890259,360.066620 673.403442,360.970642 673.161316,361.923767 
	C672.409424,364.882782 669.949280,368.161560 672.707764,370.828217 
	C675.374451,373.406067 678.896362,371.443756 681.669617,370.372681 
	C689.821106,367.224518 696.784729,362.007080 703.675110,356.727325 
	C709.359436,352.371796 715.013000,347.965088 720.866577,343.845917 
	C724.083496,341.582214 727.646484,338.893005 731.674255,342.392853 
	C734.544678,344.887024 734.516174,349.783295 731.004272,354.217896 
	C722.736694,364.657806 714.102112,374.806335 705.682251,385.126831 
	C702.525208,388.996460 699.552063,393.016113 696.293701,397.262299 
M795.805115,387.842163 
	C793.705750,392.653870 794.237305,397.094238 797.516052,401.352814 
	C800.150757,397.666199 800.326965,390.277130 797.948303,387.280243 
	C797.483093,386.694183 796.777649,386.817505 795.805115,387.842163 
M788.153625,418.778900 
	C788.421936,420.574493 787.778076,422.702667 789.796875,423.980713 
	C791.669983,423.068787 792.341919,421.561615 792.615479,419.948730 
	C792.944214,418.009979 791.594421,416.854126 790.059265,416.191040 
	C788.244690,415.407227 788.374023,417.013916 788.153625,418.778900 
z"/>
<path fill="#000000" opacity="1.000000" stroke="none" 
	d="
M287.226166,559.235352 
	C320.308105,537.585815 338.496307,507.664917 339.599854,468.173981 
	C339.837250,459.679016 338.000000,451.240234 333.607941,443.693054 
	C330.202026,437.840485 325.182983,434.090637 318.631775,432.040436 
	C307.841431,428.663574 296.447479,429.880157 285.575958,427.299438 
	C283.472198,426.799988 281.302795,426.567383 279.211517,426.026642 
	C262.835114,421.791809 255.003372,407.380798 261.195526,391.695801 
	C270.161407,368.984802 287.150116,355.648254 311.006561,350.935089 
	C319.260132,349.304443 327.470428,348.279724 335.403595,352.456360 
	C338.804108,354.246674 342.106873,355.960815 340.703430,360.696686 
	C339.522125,364.683014 335.886841,366.823029 331.109558,365.756805 
	C308.561279,360.724335 292.471436,370.868866 279.259033,387.676392 
	C276.368347,391.353668 274.355347,395.615570 274.161163,400.483673 
	C273.897522,407.092773 276.314056,410.605743 282.907410,411.722046 
	C292.247589,413.303375 301.649475,414.609253 311.069794,415.612183 
	C340.713898,418.768341 352.103882,436.455414 353.948120,463.196320 
	C356.084717,494.177399 344.665527,521.312134 325.456482,545.234863 
	C314.803040,558.502563 302.127441,569.490051 286.385620,576.415833 
	C275.857086,581.047913 264.590698,581.907654 253.577972,579.516785 
	C234.208359,575.311584 223.537827,557.053162 227.101791,536.056702 
	C229.877167,519.705994 238.389709,506.280029 248.687469,493.860504 
	C265.353485,473.760773 286.023071,458.872040 309.707458,448.071442 
	C313.048584,446.547821 316.532684,445.365906 320.183075,444.851959 
	C323.451233,444.391846 326.213104,445.383850 327.673584,448.521881 
	C329.071381,451.525116 327.833893,454.012451 325.620148,456.138519 
	C322.027863,459.588562 317.259094,460.874542 312.945251,462.986908 
	C284.640747,476.846924 260.665955,495.457703 245.899216,524.137207 
	C242.897369,529.967346 240.986862,536.130737 240.960693,542.795898 
	C240.901871,557.778503 251.098694,567.204102 266.003296,565.655640 
	C273.328369,564.894653 280.469696,563.278870 287.226166,559.235352 
z"/>
<path fill="#000000" opacity="1.000000" stroke="none" 
	d="
M597.858032,686.881042 
	C597.857361,678.690002 597.962402,670.864563 597.828857,663.043274 
	C597.753723,658.642029 600.195557,657.896912 603.883179,657.802979 
	C607.841064,657.702332 608.608765,659.692078 608.572266,663.062500 
	C608.430176,676.210693 608.318054,689.361389 608.444336,702.508789 
	C608.481628,706.398621 607.004150,707.696777 603.249451,707.977539 
	C597.746216,708.389038 593.883667,707.187012 591.192383,701.673096 
	C587.480103,694.067322 582.845764,686.907532 578.513672,679.611755 
	C577.638794,678.138306 577.146667,676.273438 575.160889,675.326416 
	C575.160889,684.273743 575.185486,693.016907 575.151978,701.759766 
	C575.130920,707.242310 573.565979,708.534729 568.256958,707.875366 
	C565.890198,707.581360 564.655212,706.573120 564.661743,704.064331 
	C564.698364,689.915161 564.687378,675.765869 564.680969,661.616577 
	C564.679871,659.141541 565.939941,658.168945 568.347107,657.887817 
	C577.005737,656.877014 578.434265,657.584045 582.756958,665.151917 
	C587.406311,673.291809 592.148560,681.378662 597.532837,690.666016 
	C597.742981,688.496399 597.803467,687.872375 597.858032,686.881042 
z"/>
<path fill="#000000" opacity="1.000000" stroke="none" 
	d="
M295.313965,671.041626 
	C297.804718,678.264954 297.530731,685.233459 295.990265,692.135620 
	C293.483215,703.368896 282.568359,709.836853 269.610229,708.025635 
	C255.712830,706.083130 248.033951,694.075684 250.039581,678.296387 
	C252.858582,656.117493 273.387238,653.960815 285.986725,659.901917 
	C290.659668,662.105347 293.191071,666.162109 295.313965,671.041626 
M273.511658,697.950134 
	C280.180939,697.365173 283.591797,694.641785 284.557770,688.600220 
	C285.268860,684.152893 285.171082,679.698975 283.998932,675.232727 
	C282.658875,670.127014 279.336517,667.724243 274.386292,667.289246 
	C269.354218,666.847046 265.280518,669.517517 263.504913,674.283386 
	C261.704712,679.115234 261.837097,684.054077 262.871979,689.031799 
	C263.988312,694.401245 267.019440,697.609741 273.511658,697.950134 
z"/>
<path fill="#000000" opacity="1.000000" stroke="none" 
	d="
M510.140076,692.451416 
	C508.122833,684.781067 508.139832,677.551880 510.870178,670.481506 
	C514.328003,661.527405 524.152527,655.992615 534.311035,657.137329 
	C546.447021,658.504761 553.820801,665.004822 555.303772,675.597656 
	C555.927063,680.050171 556.399353,684.423706 555.499329,688.972046 
	C553.204346,700.568542 546.600647,707.140076 535.699707,708.124023 
	C522.909607,709.278503 514.484741,704.215637 510.140076,692.451416 
M539.865173,695.471252 
	C545.287354,689.164612 544.468140,681.990845 542.647461,674.736877 
	C541.374939,669.667053 537.740234,667.369446 532.754517,667.265869 
	C527.797180,667.162903 524.181824,669.367249 522.301880,674.153625 
	C520.790283,678.002380 521.050842,681.997253 521.231995,685.962646 
	C521.719482,696.635986 529.810974,701.082703 539.865173,695.471252 
z"/>
<path fill="#000000" opacity="1.000000" stroke="none" 
	d="
M305.730408,688.998535 
	C305.719574,680.165894 305.825043,671.830322 305.649689,663.500671 
	C305.563049,659.384338 307.331726,657.704102 311.310669,657.865601 
	C317.124207,658.101624 322.981812,657.269592 328.750519,658.587646 
	C341.474060,661.494690 347.924164,670.801025 347.056854,684.993286 
	C346.310638,697.203735 338.099487,705.808838 326.002075,707.253784 
	C321.019226,707.848938 316.037140,707.901245 311.037964,707.902893 
	C307.368011,707.904114 305.510681,706.444763 305.700745,702.495483 
	C305.908783,698.172485 305.737091,693.831299 305.730408,688.998535 
M317.305298,693.135864 
	C316.851929,697.008057 318.789612,698.081604 322.342712,697.731445 
	C330.769836,696.901184 335.424286,691.605408 335.478821,682.558838 
	C335.532104,673.720032 330.740448,668.332886 322.226593,667.516479 
	C318.973724,667.204529 317.204224,668.082153 317.290802,671.790161 
	C317.449677,678.594910 317.315033,685.406555 317.305298,693.135864 
z"/>
<path fill="#000000" opacity="1.000000" stroke="none" 
	d="
M242.075378,674.592529 
	C241.396454,678.580017 239.828598,681.691833 236.902100,683.851135 
	C234.237518,685.817261 234.454330,687.707092 236.184784,690.147949 
	C239.163330,694.349304 241.949661,698.686768 244.828964,702.958801 
	C245.560715,704.044495 246.627655,704.982971 246.248596,706.507690 
	C240.470444,709.563416 235.596146,708.432007 232.372971,703.260742 
	C229.999695,699.452942 227.659073,695.624695 225.296494,691.810181 
	C224.382004,690.333618 223.281998,689.078491 221.315506,689.405884 
	C219.000168,689.791504 219.243912,691.707947 219.204559,693.316284 
	C219.123245,696.639343 219.053497,699.969299 219.175964,703.289124 
	C219.340378,707.745972 216.420731,707.931213 213.204712,707.864624 
	C210.207230,707.802612 207.588684,707.636902 207.628448,703.413269 
	C207.756805,689.781189 207.679199,676.147034 207.649200,662.513672 
	C207.643921,660.111023 208.123856,658.002136 211.004593,657.981506 
	C217.303589,657.936401 223.644241,657.172546 229.884949,658.631653 
	C238.612518,660.672058 242.097153,665.139771 242.075378,674.592529 
M227.371277,668.960266 
	C225.840897,668.182434 224.197403,668.046448 222.514221,668.050232 
	C219.824112,668.056274 218.986465,669.720032 219.253998,671.988342 
	C219.537354,674.390808 217.744415,677.799316 221.500168,678.765930 
	C224.272308,679.479370 227.473312,679.262512 229.152069,676.509949 
	C230.591354,674.150146 230.659378,671.395874 227.371277,668.960266 
z"/>
<path fill="#000000" opacity="1.000000" stroke="none" 
	d="
M395.562317,695.036743 
	C391.853455,705.284241 382.902161,709.886902 371.181885,707.909241 
	C360.891144,706.172791 355.683838,699.965088 355.606934,689.281433 
	C355.543457,680.461487 355.613647,671.639404 355.437317,662.822021 
	C355.365448,659.226379 356.626526,657.625549 360.365662,657.803589 
	C363.834656,657.968811 367.223145,657.658875 367.164459,662.721008 
	C367.064117,671.374329 367.058716,680.030640 367.164093,688.683838 
	C367.250519,695.781555 369.447571,698.001709 375.899200,697.950134 
	C381.912201,697.902039 384.606750,695.108765 384.701447,688.393372 
	C384.821075,679.906738 384.904449,671.412537 384.670410,662.930786 
	C384.543457,658.329590 387.053436,657.850159 390.656586,657.827698 
	C394.166290,657.805847 396.433868,658.489258 396.304016,662.729736 
	C395.978394,673.361450 396.876190,684.017822 395.562317,695.036743 
z"/>
<path fill="#000000" opacity="1.000000" stroke="none" 
	d="
M457.159607,378.287872 
	C463.425812,365.162750 473.047882,369.018829 478.367828,377.048920 
	C483.086090,384.170715 486.466858,391.946838 488.626068,400.235443 
	C489.183411,402.374908 489.378326,404.525848 488.706543,406.644196 
	C487.911804,409.150085 486.455200,411.206848 483.712524,411.725372 
	C481.276611,412.185913 479.673401,410.603119 478.234833,408.906067 
	C475.161896,405.280975 473.511536,400.905701 471.755005,396.588104 
	C470.824249,394.300110 470.219238,391.842529 468.092133,389.735535 
	C465.275085,393.723572 464.494232,398.310516 463.145111,402.653107 
	C462.059113,406.148895 461.014069,409.661743 460.099060,413.205261 
	C458.949463,417.657471 455.830353,419.206085 451.790436,418.236267 
	C447.949219,417.314117 445.925140,414.376617 446.653839,410.300354 
	C448.387695,400.601868 451.045502,391.162354 455.207581,382.193329 
	C455.768158,380.985260 456.387878,379.804688 457.159607,378.287872 
z"/>
<path fill="#000000" opacity="1.000000" stroke="none" 
	d="
M177.065216,700.847778 
	C176.905273,707.184814 172.468262,709.987488 167.152405,707.617065 
	C165.301834,706.791931 165.002945,705.242981 165.005920,703.508850 
	C165.028915,690.038635 165.082474,676.568420 165.072083,663.098206 
	C165.069199,659.358337 166.673752,657.608337 170.534775,657.843079 
	C175.997101,658.175171 181.502960,657.279297 186.944778,658.425354 
	C195.507401,660.228577 200.431107,666.097839 200.025162,674.064453 
	C199.569687,683.002686 193.922592,689.199829 185.316513,690.205811 
	C177.093552,691.167114 177.093552,691.167114 177.065216,700.847778 
M177.116058,671.831665 
	C177.093079,672.828918 176.949081,673.841492 177.072479,674.820312 
	C177.323868,676.814270 176.124573,679.657410 178.990265,680.363831 
	C181.842453,681.066956 184.795013,680.188721 186.589661,677.718994 
	C188.678345,674.844482 188.651550,671.710022 185.704803,669.306946 
	C182.789581,666.929749 179.014587,667.781738 177.116058,671.831665 
z"/>
<path fill="#000000" opacity="1.000000" stroke="none" 
	d="
M417.980286,674.210999 
	C416.285645,679.074219 416.082764,683.600220 417.056580,688.310913 
	C418.566772,695.616455 421.238892,698.081360 428.549744,697.943176 
	C430.689606,697.902649 432.817383,697.377380 434.957214,697.130737 
	C436.870697,696.910156 439.604584,694.802795 440.261169,698.205872 
	C440.780548,700.897888 441.789337,704.275146 438.412964,706.313782 
	C430.038574,711.369995 414.552155,707.953613 409.017914,699.837585 
	C403.331360,691.498108 403.178223,675.404297 408.705109,666.962036 
	C414.825562,657.613342 430.646637,654.109802 439.970276,659.891052 
	C442.911652,661.714966 441.699432,663.817383 440.826996,665.911072 
	C439.964172,667.981628 439.393219,670.646179 435.998444,669.438293 
	C433.810913,668.659973 431.610626,667.720764 429.340118,667.412109 
	C424.070892,666.695923 420.371765,669.100647 417.980286,674.210999 
z"/>
<path fill="#000000" opacity="1.000000" stroke="none" 
	d="
M446.720276,658.378113 
	C457.610565,658.084412 468.096863,657.987793 478.582886,657.869507 
	C482.581665,657.824341 482.368958,660.527344 482.461395,663.354065 
	C482.561432,666.413208 481.670715,668.210205 478.323517,668.087952 
	C477.158905,668.045349 475.980133,668.179810 474.827759,668.052673 
	C470.747253,667.602295 469.631744,669.674377 469.711670,673.393677 
	C469.908417,682.551025 469.834900,691.713806 469.964722,700.873047 
	C470.022064,704.920898 469.651123,708.185303 464.212280,707.946106 
	C458.614532,707.700012 457.930481,707.218750 457.907501,701.055847 
	C457.874542,692.227051 457.622284,683.388794 457.953583,674.572998 
	C458.140594,669.597046 456.641785,667.753906 451.489899,667.987427 
	C444.569275,668.300903 442.987701,665.080505 446.720276,658.378113 
z"/>
<path fill="#000000" opacity="1.000000" stroke="none" 
	d="
M500.101837,705.441040 
	C497.411865,709.414368 493.899506,707.747314 490.894745,707.095276 
	C487.801666,706.424133 488.801819,703.337891 488.786469,701.182495 
	C488.696594,688.570923 488.882233,675.955566 488.646332,663.347656 
	C488.559265,658.695618 490.740997,657.856323 494.718109,657.791199 
	C498.728821,657.725464 500.394440,658.970276 500.334534,663.187439 
	C500.136566,677.124146 500.222076,691.064819 500.101837,705.441040 
z"/>
</svg>